<?xml version="1.0" standalone="no"?>
<!DOCTYPE svg PUBLIC "-//W3C//DTD SVG 20010904//EN"
 "http://www.w3.org/TR/2001/REC-SVG-20010904/DTD/svg10.dtd">
<svg version="1.0" xmlns="http://www.w3.org/2000/svg"
 width="1000.000000pt" height="1000.000000pt" viewBox="0 0 1000.000000 1000.000000"
 preserveAspectRatio="xMidYMid meet">
<metadata>
Created by potrace 1.14, written by Peter Selinger 2001-2017
</metadata>
<g transform="translate(0.000000,1000.000000) scale(0.100000,-0.100000)"
fill="#000000" stroke="none">
<path d="M0 5000 l0 -5000 5000 0 5000 0 0 5000 0 5000 -5000 0 -5000 0 0
-5000z m5520 3917 l0 -533 -41 -39 c-62 -60 -255 -277 -345 -390 -319 -396
-668 -935 -971 -1500 -475 -885 -823 -1871 -1033 -2924 -100 -506 -154 -948
-168 -1391 l-7 -215 -699 -3 c-385 -1 -703 1 -707 5 -9 10 6 318 26 553 163
1873 964 3906 2149 5455 l114 150 -1659 3 -1659 2 0 680 0 680 2500 0 2500 0
0 -533z m2300 -2616 c301 -23 493 -56 650 -109 337 -116 586 -312 789 -621 99
-152 160 -296 198 -474 26 -118 25 -457 0 -577 -90 -418 -376 -793 -750 -982
l-60 -30 89 -29 c449 -150 795 -469 947 -874 152 -404 119 -892 -89 -1325
-264 -549 -734 -863 -1379 -920 -265 -23 -712 -31 -2052 -37 l-1403 -6 0 3002
0 3003 1458 -5 c949 -3 1507 -8 1602 -16z"/>
<path d="M5970 4623 l0 -696 738 7 c405 4 792 11 860 16 159 12 265 39 382 96
171 85 285 222 331 402 26 104 26 281 -1 386 -60 235 -232 392 -491 447 -80
17 -154 21 -514 29 -231 5 -619 9 -862 9 l-443 1 0 -697z"/>
<path d="M5970 2130 l0 -800 518 0 c719 1 1250 14 1382 35 190 31 321 90 435
197 153 142 216 304 216 553 0 182 -35 314 -116 440 -45 72 -129 155 -202 202
-232 148 -452 173 -1555 173 l-678 0 0 -800z"/>
</g>
</svg>
