<?xml version="1.0" standalone="no"?>
<!DOCTYPE svg PUBLIC "-//W3C//DTD SVG 20010904//EN"
 "http://www.w3.org/TR/2001/REC-SVG-20010904/DTD/svg10.dtd">
<svg version="1.0" xmlns="http://www.w3.org/2000/svg"
 width="660.000000pt" height="685.000000pt" viewBox="0 0 660.000000 685.000000"
 preserveAspectRatio="xMidYMid meet">
<metadata>
Created by potrace 1.16, written by Peter Selinger 2001-2019
</metadata>
<g transform="translate(0.000000,685.000000) scale(0.100000,-0.100000)"
fill="#000000" stroke="none">
<path d="M0 3425 l0 -3425 3300 0 3300 0 0 3425 0 3425 -3300 0 -3300 0 0
-3425z m1287 3252 l28 -27 0 -530 0 -530 -28 -27 -27 -28 -530 0 -530 0 -27
28 -28 27 0 529 c0 515 1 529 20 551 11 12 29 26 40 31 11 4 253 7 537 6 l518
-2 27 -28z m1290 0 l28 -27 0 -530 0 -530 -28 -27 -27 -28 -525 0 -525 0 -27
28 -28 27 0 529 c0 515 1 529 20 551 11 12 29 26 40 31 11 4 251 7 532 6 l513
-2 27 -28z m1300 0 l28 -27 0 -530 0 -530 -28 -27 -27 -28 -530 0 -530 0 -27
28 -28 27 0 529 c0 515 1 529 20 551 11 12 29 26 40 31 11 4 253 7 537 6 l518
-2 27 -28z m1290 0 l28 -27 0 -530 0 -530 -28 -27 -27 -28 -525 0 -525 0 -27
28 -28 27 0 529 c0 515 1 529 20 551 11 12 29 26 40 31 11 4 251 7 532 6 l513
-2 27 -28z m1300 0 l28 -27 0 -530 0 -530 -28 -27 -27 -28 -530 0 -530 0 -27
28 -28 27 0 529 c0 515 1 529 20 551 11 12 29 26 40 31 11 4 253 7 537 6 l518
-2 27 -28z m-5165 -1345 l33 -32 0 -535 0 -535 -33 -32 -32 -33 -540 0 -540 0
-32 33 -33 32 0 534 0 534 25 27 c14 15 34 31 45 36 11 4 257 7 547 6 l528 -2
32 -33z m1290 0 l33 -32 0 -535 0 -535 -33 -32 -32 -33 -535 0 -535 0 -32 33
-33 32 0 534 0 534 25 27 c14 15 34 31 45 36 11 4 255 7 542 6 l523 -2 32 -33z
m1300 0 l33 -32 0 -535 0 -535 -33 -32 -32 -33 -540 0 -540 0 -32 33 -33 32 0
534 0 534 25 27 c14 15 34 31 45 36 11 4 257 7 547 6 l528 -2 32 -33z m1290 0
l33 -32 0 -535 0 -535 -33 -32 -32 -33 -535 0 -535 0 -32 33 -33 32 0 534 0
534 25 27 c14 15 34 31 45 36 11 4 255 7 542 6 l523 -2 32 -33z m1285 -15 l28
-27 0 -525 0 -525 -28 -27 -27 -28 -530 0 -530 0 -27 28 -28 27 0 524 c0 510
1 524 20 546 11 12 29 26 40 31 11 4 253 7 537 6 l518 -2 27 -28z m-2575
-1335 l33 -32 0 -540 0 -540 -33 -32 -32 -33 -540 0 -540 0 -32 33 -33 32 0
539 0 539 25 27 c14 15 34 31 45 36 11 4 257 7 547 6 l528 -2 32 -33z m1290 0
l33 -32 0 -540 0 -540 -33 -32 -32 -33 -535 0 -535 0 -32 33 -33 32 0 539 0
539 25 27 c14 15 34 31 45 36 11 4 255 7 542 6 l523 -2 32 -33z m-3895 -15
l28 -27 0 -530 0 -530 -28 -27 -27 -28 -530 0 -530 0 -27 28 -28 27 0 529 c0
515 1 529 20 551 11 12 29 26 40 31 11 4 253 7 537 6 l518 -2 27 -28z m1290 0
l28 -27 0 -530 0 -530 -28 -27 -27 -28 -525 0 -525 0 -27 28 -28 27 0 529 c0
515 1 529 20 551 11 12 29 26 40 31 11 4 251 7 532 6 l513 -2 27 -28z m3890 0
l28 -27 0 -530 0 -530 -28 -27 -27 -28 -530 0 -530 0 -27 28 -28 27 0 529 c0
515 1 529 20 551 11 12 29 26 40 31 11 4 253 7 537 6 l518 -2 27 -28z m-5165
-1345 l33 -32 0 -536 0 -536 -37 -34 -38 -34 -530 0 -530 0 -38 34 -37 34 0
535 0 535 25 27 c14 15 34 31 45 36 11 4 257 7 547 6 l528 -2 32 -33z m1290 0
l33 -32 3 -521 c2 -460 1 -524 -14 -554 -31 -67 -24 -66 -603 -63 l-521 3 -32
33 -33 32 0 534 0 534 25 27 c14 15 34 31 45 36 11 4 255 7 542 6 l523 -2 32
-33z m1300 0 l33 -32 0 -535 0 -535 -33 -32 -32 -33 -540 0 -540 0 -32 33 -33
32 0 534 0 534 25 27 c14 15 34 31 45 36 11 4 257 7 547 6 l528 -2 32 -33z
m1290 0 l33 -32 0 -536 0 -536 -37 -34 -38 -34 -525 0 -525 0 -38 34 -37 34 0
535 0 535 25 27 c14 15 34 31 45 36 11 4 255 7 542 6 l523 -2 32 -33z m1300 0
l33 -32 0 -536 0 -536 -37 -34 -38 -34 -530 0 -530 0 -38 34 -37 34 0 535 0
535 25 27 c14 15 34 31 45 36 11 4 257 7 547 6 l528 -2 32 -33z m-3890 -1350
l33 -32 3 -528 c3 -478 2 -530 -14 -559 -33 -64 -28 -63 -594 -63 -465 0 -515
2 -541 17 -60 36 -60 30 -57 608 l3 527 38 34 37 35 530 -3 530 -3 32 -33z
m1273 22 c66 -31 65 -25 65 -599 0 -469 -2 -520 -17 -546 -35 -59 -31 -59
-598 -59 -567 0 -552 -2 -589 60 -14 25 -16 85 -16 553 l0 525 27 32 c14 18
36 36 47 40 12 5 252 9 534 9 448 1 518 -1 547 -15z m1289 1 c68 -32 66 -16
66 -595 0 -465 -2 -525 -16 -550 -37 -62 -22 -60 -589 -60 -466 0 -520 2 -545
17 -63 37 -61 25 -58 605 l3 526 25 27 c14 15 34 31 45 35 11 5 249 9 528 9
435 1 514 -1 541 -14z m1328 -23 l33 -32 3 -528 c3 -580 5 -568 -58 -605 -25
-15 -79 -17 -550 -17 -471 0 -525 2 -550 17 -63 37 -61 25 -58 606 l3 529 38
34 37 35 535 -3 535 -3 32 -33z m-5195 -15 l28 -27 0 -530 0 -530 -28 -27 -27
-28 -530 0 -530 0 -27 28 -28 27 0 529 c0 515 1 529 20 551 11 12 29 26 40 31
11 4 253 7 537 6 l518 -2 27 -28z"/>
<path d="M174 5316 l-34 -34 0 -517 0 -517 34 -34 34 -34 522 0 522 0 34 34
34 34 0 517 0 517 -34 34 -34 34 -522 0 -522 0 -34 -34z"/>
<path d="M1474 5316 l-34 -34 0 -517 0 -517 34 -34 34 -34 517 0 517 0 34 34
34 34 0 517 0 517 -34 34 -34 34 -517 0 -517 0 -34 -34z"/>
<path d="M2764 5316 l-34 -34 0 -517 0 -517 34 -34 34 -34 522 0 522 0 34 34
34 34 0 517 0 517 -34 34 -34 34 -522 0 -522 0 -34 -34z"/>
<path d="M4064 5316 l-34 -34 0 -517 0 -517 34 -34 34 -34 517 0 517 0 34 34
34 34 0 517 0 517 -34 34 -34 34 -517 0 -517 0 -34 -34z"/>
<path d="M2764 3966 l-34 -34 0 -522 0 -522 34 -34 34 -34 522 0 522 0 34 34
34 34 0 522 0 522 -34 34 -34 34 -522 0 -522 0 -34 -34z"/>
<path d="M4064 3966 l-34 -34 0 -522 0 -522 34 -34 34 -34 517 0 517 0 34 34
34 34 0 522 0 522 -34 34 -34 34 -517 0 -517 0 -34 -34z"/>
<path d="M174 2606 l-34 -34 0 -517 0 -517 34 -34 34 -34 522 0 522 0 34 34
34 34 0 517 0 517 -34 34 -34 34 -522 0 -522 0 -34 -34z"/>
<path d="M1474 2606 l-34 -34 0 -517 0 -517 34 -34 34 -34 517 0 517 0 34 34
34 34 0 517 0 517 -34 34 -34 34 -517 0 -517 0 -34 -34z"/>
<path d="M2764 2606 l-34 -34 0 -517 0 -517 34 -34 34 -34 522 0 522 0 34 34
34 34 0 517 0 517 -34 34 -34 34 -522 0 -522 0 -34 -34z"/>
<path d="M4064 2606 l-34 -34 0 -517 0 -517 34 -34 34 -34 517 0 517 0 34 34
34 34 0 517 0 517 -34 34 -34 34 -517 0 -517 0 -34 -34z"/>
<path d="M5354 2606 l-34 -34 0 -517 0 -517 34 -34 34 -34 522 0 522 0 34 34
34 34 0 517 0 517 -34 34 -34 34 -522 0 -522 0 -34 -34z"/>
<path d="M1474 1256 l-34 -34 0 -522 0 -522 34 -34 34 -34 517 0 517 0 34 34
34 34 0 522 0 522 -34 34 -34 34 -517 0 -517 0 -34 -34z"/>
<path d="M2764 1256 l-34 -34 0 -522 0 -522 34 -34 34 -34 522 0 522 0 34 34
34 34 0 522 0 522 -34 34 -34 34 -522 0 -522 0 -34 -34z"/>
<path d="M4064 1256 l-34 -34 0 -522 0 -522 34 -34 34 -34 517 0 517 0 34 34
34 34 0 522 0 522 -34 34 -34 34 -517 0 -517 0 -34 -34z"/>
<path d="M5354 1256 l-34 -34 0 -522 0 -522 34 -34 34 -34 522 0 522 0 34 34
34 34 0 522 0 522 -34 34 -34 34 -522 0 -522 0 -34 -34z"/>
</g>
</svg>
